<svg xmlns="http://www.w3.org/2000/svg" xmlns:xlink="http://www.w3.org/1999/xlink" width="54" height="47" viewBox="0 0 54 47">
  <defs>
    <clipPath id="clip-Mesa_de_trabajo_2">
      <rect width="54" height="47"/>
    </clipPath>
  </defs>
  <g id="Mesa_de_trabajo_2" data-name="Mesa de trabajo – 2" clip-path="url(#clip-Mesa_de_trabajo_2)">
    <g id="Grupo_260" data-name="Grupo 260" transform="translate(-1626.139 -564.614) rotate(-9)">
      <path id="Trazado_67" data-name="Trazado 67" d="M-67.59-69.211l-.021.362q0,.107-.107,1.343-.085.938-.085,1.45,0,.64.021,1.066a2.616,2.616,0,0,1,.021.362q0,.235-.107.235t-.235-.213a2.4,2.4,0,0,0-1-1,5.2,5.2,0,0,1-3.433,1.365,6.83,6.83,0,0,1-4.925-2.089,7.5,7.5,0,0,1-2.26-5.586,7.684,7.684,0,0,1,2.036-5.448A6.662,6.662,0,0,1-72.6-79.552a4.943,4.943,0,0,1,2.516.64,2.263,2.263,0,0,0,.938.362,1.136,1.136,0,0,0,.832-.405q.277-.3.341-.3.085,0,.085.149a1.284,1.284,0,0,1-.021.192,10.54,10.54,0,0,0-.128,1.791q0,.107.021.874v1.471q0,.384-.213.384-.171,0-.341-.832-.768-3.838-3.518-3.838-2.175,0-3.156,2.814a13.794,13.794,0,0,0-.682,4.605q0,3.987,1.62,5.842a2.824,2.824,0,0,0,2.239.981q3.006,0,3.944-4.008.149-.661.341-.661Q-67.569-69.488-67.59-69.211Zm9.125-3.241a1.438,1.438,0,0,1-.362,1.013,1.216,1.216,0,0,1-.938.394q-1.151,0-1.151-1.066a1.191,1.191,0,0,1,.277-.725.263.263,0,0,0,.064-.149q0-.192-.277-.192-.725,0-1.109,1.13a13.378,13.378,0,0,0-.213,3.134v1.556l.021,1.876a.553.553,0,0,0,.576.618q.341.021.81.021.235.021.235.149,0,.171-.192.171h-.426q-.192-.021-1.855-.021.085,0-.959.021l-1.045.021h-.81q-.213.021-.49.021-.235,0-.235-.149t.3-.149a2.083,2.083,0,0,0,1.055-.181q.181-.16.181-.949l-.021-5.757a1.789,1.789,0,0,0-.2-1,1.246,1.246,0,0,0-.906-.341,6.265,6.265,0,0,1-.629-.064q-.075-.021-.075-.149t.171-.128a2.924,2.924,0,0,1,.362.021h.426a10.5,10.5,0,0,0,3.539-.682,4.063,4.063,0,0,1,.107.981v.9a3.822,3.822,0,0,1,.885-1.471,1.807,1.807,0,0,1,1.247-.426,1.622,1.622,0,0,1,1.183.448A1.513,1.513,0,0,1-58.464-72.452Zm9.232,5.309a2.363,2.363,0,0,1-.554,1.237A3.682,3.682,0,0,1-52.9-64.265a4.833,4.833,0,0,1-3.539-1.365,4.7,4.7,0,0,1-1.386-3.5,4.83,4.83,0,0,1,1.343-3.486,4.455,4.455,0,0,1,3.347-1.4,4.314,4.314,0,0,1,2.324.6,3.048,3.048,0,0,1,1.386,1.9,6.784,6.784,0,0,1,.128.917q-.49.043-3.944.064-.533,0-1.343.043-.064.768-.064,1.3A4.9,4.9,0,0,0-53.6-65.651a2.059,2.059,0,0,0,1.514.618,2.392,2.392,0,0,0,1.439-.512,3.274,3.274,0,0,0,1.055-1.322q.171-.405.277-.405Q-49.232-67.271-49.232-67.143Zm-2.686-3.71a6.7,6.7,0,0,0-.235-2.281.907.907,0,0,0-.9-.64q-1.3,0-1.492,2.921.448-.021,1.876-.021Q-52.239-70.874-51.919-70.853Z" transform="translate(1596 899)" fill="#fff"/>
      <path id="Trazado_66" data-name="Trazado 66" d="M-69.926-65.764q0,.171-.341.469a3.24,3.24,0,0,1-2.26.832,1.84,1.84,0,0,1-1.269-.362,2.136,2.136,0,0,1-.522-1.3,2.914,2.914,0,0,1-2.622,1.748,1.984,1.984,0,0,1-1.482-.576,2.04,2.04,0,0,1-.565-1.492q0-2.686,4.605-3.177v-.448a12.9,12.9,0,0,0-.149-2.622l-.021-.107a1.4,1.4,0,0,0-1.514-1.066,1.573,1.573,0,0,0-1.13.405,1.132,1.132,0,0,0-.426.789q0,.213.512.256.768.064.768.938a1.055,1.055,0,0,1-.309.778,1.082,1.082,0,0,1-.8.309,1.414,1.414,0,0,1-1.013-.373,1.249,1.249,0,0,1-.394-.949,2.137,2.137,0,0,1,.917-1.663,3.7,3.7,0,0,1,2.409-.746,4.648,4.648,0,0,1,3.092.789,3.077,3.077,0,0,1,.7,2.3v3.646q0,1.066.021,1.237.107.9.618.9a1.471,1.471,0,0,0,.9-.512.292.292,0,0,1,.171-.107A.094.094,0,0,1-69.926-65.764ZM-74.382-68.3v-1.045A2.224,2.224,0,0,0-76.45-67q0,1.492,1.023,1.492a.834.834,0,0,0,.81-.64A6.93,6.93,0,0,0-74.382-68.3Zm15.138,3.262q0,.149-.426.149l-.959-.021a4.982,4.982,0,0,0-2.2.512.891.891,0,0,1-.149.043q-.192,0-.213-.384a3.091,3.091,0,0,0-.064-.533,2.94,2.94,0,0,1-2.26.917A3.931,3.931,0,0,1-68.6-65.742a5.141,5.141,0,0,1-1.215-3.518,4.95,4.95,0,0,1,1.237-3.507A4.241,4.241,0,0,1-65.32-74.1a2.692,2.692,0,0,1,2.153.981V-76.1a8.019,8.019,0,0,0-.171-2.271q-.171-.352-1.13-.33-.554,0-.554-.149t.256-.149a11.917,11.917,0,0,0,3.71-.576,1.357,1.357,0,0,1,.362-.085q.235,0,.235.512l.021,1.066.021,2.047v10.17a.8.8,0,0,0,.107.49q.149.192.746.171Q-59.244-65.231-59.244-65.039Zm-3.944-1.919v-4.648a2.56,2.56,0,0,0-.32-1.429,1.291,1.291,0,0,0-1.13-.6q-2.047,0-2.047,4.541a7.54,7.54,0,0,0,.522,3.134,1.613,1.613,0,0,0,1.46,1.109,1.421,1.421,0,0,0,1.034-.5A2.27,2.27,0,0,0-63.188-66.958Zm14.328-2.2a4.467,4.467,0,0,1-1.791,3.689,4.884,4.884,0,0,1-3.092,1.109A4.769,4.769,0,0,1-57.208-65.8a4.617,4.617,0,0,1-1.46-3.4,4.713,4.713,0,0,1,1.46-3.486,4.844,4.844,0,0,1,3.529-1.439,4.572,4.572,0,0,1,3.4,1.46A4.856,4.856,0,0,1-48.86-69.154Zm-3.219.021a12.06,12.06,0,0,0-.362-3.625q-.405-1.087-1.3-1.087-.832,0-1.3,1.141a8.495,8.495,0,0,0-.469,3.145,10.093,10.093,0,0,0,.554,3.966,1.384,1.384,0,0,0,1.258.938q1,0,1.322-1.194A13.674,13.674,0,0,0-52.08-69.132Z" transform="translate(1612.763 911.167)" fill="#fff"/>
      <path id="Trazado_65" data-name="Trazado 65" d="M-59.025-50.174a1.438,1.438,0,0,1-.362,1.013,1.216,1.216,0,0,1-.938.394q-1.151,0-1.151-1.066a1.191,1.191,0,0,1,.277-.725.263.263,0,0,0,.064-.149q0-.192-.277-.192-.725,0-1.109,1.13a13.378,13.378,0,0,0-.213,3.134v1.556l.021,1.876a.553.553,0,0,0,.576.618q.341.021.81.021.235.021.235.149,0,.171-.192.171h-.426q-.192-.021-1.855-.021.085,0-.959.021l-1.045.021h-.81q-.213.021-.49.021-.235,0-.235-.149t.3-.149a2.083,2.083,0,0,0,1.055-.181q.181-.16.181-.949l-.021-5.757a1.789,1.789,0,0,0-.2-1,1.246,1.246,0,0,0-.906-.341,6.267,6.267,0,0,1-.629-.064q-.075-.021-.075-.149t.171-.128a2.926,2.926,0,0,1,.362.021h.426a10.5,10.5,0,0,0,3.539-.682,4.063,4.063,0,0,1,.107.981v.9a3.822,3.822,0,0,1,.885-1.471,1.807,1.807,0,0,1,1.247-.426,1.622,1.622,0,0,1,1.183.448A1.513,1.513,0,0,1-59.025-50.174Zm9.232,5.309a2.363,2.363,0,0,1-.554,1.237,3.682,3.682,0,0,1-3.113,1.642A4.833,4.833,0,0,1-57-43.351a4.7,4.7,0,0,1-1.386-3.5,4.83,4.83,0,0,1,1.343-3.486,4.455,4.455,0,0,1,3.347-1.4,4.314,4.314,0,0,1,2.324.6,3.048,3.048,0,0,1,1.386,1.9,6.784,6.784,0,0,1,.128.917q-.49.043-3.944.064-.533,0-1.343.043-.064.768-.064,1.3a4.9,4.9,0,0,0,1.045,3.539,2.059,2.059,0,0,0,1.514.618,2.392,2.392,0,0,0,1.439-.512,3.274,3.274,0,0,0,1.055-1.322q.171-.405.277-.405Q-49.793-44.993-49.793-44.865Zm-2.686-3.71a6.7,6.7,0,0,0-.235-2.281.907.907,0,0,0-.9-.64q-1.3,0-1.492,2.921.448-.021,1.876-.021Q-52.8-48.6-52.48-48.575Zm10.234,3.369a3.15,3.15,0,0,1-.874,2.313,3.038,3.038,0,0,1-2.26.885A4.867,4.867,0,0,1-47-42.349a4,4,0,0,0-1-.277.519.519,0,0,0-.533.3q-.128.3-.192.3-.128,0-.128-.149a2.992,2.992,0,0,1,.043-.405,10.43,10.43,0,0,0,.064-1.407V-44.2a4,4,0,0,1-.021-.469v-.362q0-.235.107-.235.128,0,.192.32a3.079,3.079,0,0,0,1.087,1.887,3.026,3.026,0,0,0,2,.757,1.543,1.543,0,0,0,1.141-.437,1.543,1.543,0,0,0,.437-1.141,1.243,1.243,0,0,0-.405-.938,5.308,5.308,0,0,0-1.6-.7,5.592,5.592,0,0,1-2.313-1.29,2.7,2.7,0,0,1-.714-1.93,2.938,2.938,0,0,1,.853-2.132,2.806,2.806,0,0,1,2.089-.874,7.624,7.624,0,0,1,1.62.3,1.166,1.166,0,0,0,.256.043q.469,0,.7-.576.043-.107.107-.107.149,0,.149.256l-.021.405a1.413,1.413,0,0,0-.021.3,15.5,15.5,0,0,0,.107,1.791v.107q0,.171-.128.171-.107,0-.171-.192a2.53,2.53,0,0,0-2.516-2.175,1.748,1.748,0,0,0-1.162.384,1.222,1.222,0,0,0-.458.981,1.077,1.077,0,0,0,.384.874,5.52,5.52,0,0,0,1.492.725A7.335,7.335,0,0,1-42.928-47.1,2.565,2.565,0,0,1-42.246-45.206Z" transform="translate(1591.29 901.062)" fill="#fff"/>
      <path id="Trazado_64" data-name="Trazado 64" d="M-36.627-23.964a.534.534,0,0,1-.155.395.534.534,0,0,1-.395.155.553.553,0,0,1-.4-.159.524.524,0,0,1-.162-.391.546.546,0,0,1,.162-.4.546.546,0,0,1,.4-.162.528.528,0,0,1,.387.162A.546.546,0,0,1-36.627-23.964Zm3.187-.015q0,.085-.147.224a1.446,1.446,0,0,1-1.044.364.893.893,0,0,1-.8-.3.5.5,0,0,1-.089-.217q-.012-.1-.012-.518v-.681l-.008-.162v-.7l-.008-.557q0-.139-.039-.162a.638.638,0,0,0-.232-.023q-.232,0-.232-.062,0-.046.085-.062a1.575,1.575,0,0,0,1.253-.789q.07-.108.108-.108t.046.108a1.958,1.958,0,0,0,.054.727.666.666,0,0,0,.379.062,2.283,2.283,0,0,0,.456-.031.069.069,0,0,1,.031-.008q.031,0,.031.046,0,.108-.1.108-.317.008-.7.008-.031,0-.108-.008v.162q0,2.073.054,2.429.07.449.433.449a.715.715,0,0,0,.418-.232q.124-.108.155-.108T-33.439-23.98Zm3.071-.449a.857.857,0,0,1-.2.449,1.336,1.336,0,0,1-1.129.6,1.754,1.754,0,0,1-1.284-.5,1.7,1.7,0,0,1-.5-1.269A1.752,1.752,0,0,1-33-26.412a1.616,1.616,0,0,1,1.215-.507,1.565,1.565,0,0,1,.843.217,1.106,1.106,0,0,1,.5.688,2.462,2.462,0,0,1,.046.333q-.178.015-1.431.023-.193,0-.487.015-.023.278-.023.472a1.777,1.777,0,0,0,.379,1.284.747.747,0,0,0,.549.224.868.868,0,0,0,.522-.186,1.188,1.188,0,0,0,.383-.48q.062-.147.1-.147T-30.368-24.428Zm-.975-1.346a2.429,2.429,0,0,0-.085-.828.329.329,0,0,0-.325-.232q-.472,0-.542,1.06.162-.008.681-.008Q-31.459-25.782-31.343-25.774Zm4.216-.356a.424.424,0,0,1-.108.3.364.364,0,0,1-.278.116q-.41,0-.41-.364a.618.618,0,0,1,.05-.22.589.589,0,0,0,.05-.182.331.331,0,0,0-.112-.251.388.388,0,0,0-.275-.1q-.7,0-.7,1.57A2.077,2.077,0,0,0-28.6-23.98a.732.732,0,0,0,.588.294,1.021,1.021,0,0,0,.743-.472q.046-.062.085-.062t.031.046q0,.147-.278.41a1.36,1.36,0,0,1-.967.379,1.605,1.605,0,0,1-1.187-.5,1.662,1.662,0,0,1-.491-1.211,1.792,1.792,0,0,1,.518-1.3,1.715,1.715,0,0,1,1.276-.53,1.416,1.416,0,0,1,.824.232A.675.675,0,0,1-27.127-26.13ZM-23-23.508q0,.046-.07.046h-.155q-.162-.008-.271-.008h-.193q-.665,0-.82-.015h-.124l-.186.008q-.1.008-.1-.054,0-.046.039-.046l.178.008q.17.008.193-.093.015-.062.015-.774v-1.153a2.766,2.766,0,0,0-.07-.851.391.391,0,0,0-.387-.2.513.513,0,0,0-.464.271,1.31,1.31,0,0,0-.077.565v1.215q0,.565.008.619v.093l-.008.186q-.008.116.325.116.07,0,.07.046t-.1.054h-.062a1.631,1.631,0,0,0-.186-.008h-.34l-.433.008-.456.015H-26.9q-.116,0-.116-.046A.031.031,0,0,1-27-23.539a.192.192,0,0,1,.07-.008,1.382,1.382,0,0,0,.348-.023q.054-.023.07-.178.008-.093.008-.928v-2.839a6.671,6.671,0,0,0-.035-.963q-.035-.128-.329-.128-.224,0-.224-.046t.263-.062a4.856,4.856,0,0,0,1.122-.2.57.57,0,0,1,.147-.031q.062,0,.062.433v.565q-.008.248-.008.34v1.23a1.4,1.4,0,0,1,.437-.433,1.209,1.209,0,0,1,.576-.116.886.886,0,0,1,.959.619,2.172,2.172,0,0,1,.07.65v1.8q0,.2.066.248a.7.7,0,0,0,.329.046Q-23-23.562-23-23.508Z" transform="translate(1587.789 876.622)" fill="#fff"/>
    </g>
  </g>
</svg>
