<svg xmlns="http://www.w3.org/2000/svg" width="171.968" height="93.308" viewBox="0 0 171.968 93.308">
  <g id="Grupo_53" data-name="Grupo 53" transform="translate(-1377.063 -645)">
    <path id="Trazado_98" data-name="Trazado 98" d="M3.233-28.541a13.485,13.485,0,0,0,2.732,8.59,10.233,10.233,0,0,0,8.392,3.785,10.135,10.135,0,0,0,8.392-3.785,13.294,13.294,0,0,0,2.732-8.59,13.515,13.515,0,0,0-2.732-8.623,10.159,10.159,0,0,0-8.392-3.752,10.252,10.252,0,0,0-8.392,3.752A13.389,13.389,0,0,0,3.233-28.541Zm3.324,0a16.2,16.2,0,0,1,1.777-7.9,6.612,6.612,0,0,1,6.023-3.587A6.553,6.553,0,0,1,20.38-36.44a15.935,15.935,0,0,1,1.777,7.9,15.935,15.935,0,0,1-1.777,7.9,6.612,6.612,0,0,1-6.023,3.587,6.612,6.612,0,0,1-6.023-3.587A16.287,16.287,0,0,1,6.557-28.541Z" transform="translate(1394.425 754.276)" fill="#9d1a1a"/>
    <path id="Trazado_99" data-name="Trazado 99" d="M5.22-18.8H6.713a14.483,14.483,0,0,0,4.388-.551c1.884-.666,2.78-2.068,2.78-4.274a4,4,0,0,0-2.275-4,9.959,9.959,0,0,0-3.883-.62H1.406v.551c1.654.069,1.769.23,1.769,2.367V-14.5c0,2.137-.138,2.3-1.769,2.344v.574H7.15v-.574c-1.792-.046-1.93-.23-1.93-2.344Zm0-.689v-8.065H7.288c2.918,0,4.365,1.333,4.365,4.021A4.182,4.182,0,0,1,10.6-20.453a5.6,5.6,0,0,1-3.745.965Zm12.476,7.9H29.667l.46-4.572-.643-.046c-.643,3.171-1.47,3.929-4.365,3.929h-3.63v-7.605h2.367a4.159,4.159,0,0,1,2.6.528,3.161,3.161,0,0,1,.643,1.838h.643v-5.4h-.643c-.253,2.022-.689,2.344-3.24,2.344H21.487v-6.985h3.171c2.941,0,3.791.689,4.342,3.469l.666-.046L29.3-28.242H17.7v.551c1.057,0,1.47.184,1.631.666a6.241,6.241,0,0,1,.115,1.7V-14.5c-.046,1.723-.046,1.746-.3,2.022-.207.23-.666.345-1.447.345Zm20.4-7.9h1.4a4.675,4.675,0,0,1,1.631.276c.689.23,1.126.689,1.677,1.677a44.939,44.939,0,0,1,2.5,5.951H48.9v-.505a1.75,1.75,0,0,1-1.218-.437c-.46-.391-.643-.712-1.769-3.263A7.654,7.654,0,0,0,44-18.8a3.873,3.873,0,0,0-1.838-.827v-.207a5.679,5.679,0,0,0,3.86-1.7,4.459,4.459,0,0,0,.781-2.6c0-2.8-1.953-4.113-6.158-4.113H34.285v.551c1.654.069,1.769.23,1.769,2.367V-14.5c0,2.114-.138,2.3-1.769,2.344v.574h5.606v-.574c-1.654-.046-1.792-.23-1.792-2.344Zm0-.689v-7.375h2.114c2.941,0,4.365,1.172,4.365,3.584a3.49,3.49,0,0,1-1.4,3.079,5.832,5.832,0,0,1-3.171.712Zm14.429.253a9.414,9.414,0,0,0,1.907,6,7.144,7.144,0,0,0,5.859,2.642,7.075,7.075,0,0,0,5.859-2.642,9.281,9.281,0,0,0,1.907-6,9.435,9.435,0,0,0-1.907-6.02,7.092,7.092,0,0,0-5.859-2.619,7.157,7.157,0,0,0-5.859,2.619A9.347,9.347,0,0,0,52.528-19.925Zm2.321,0a11.308,11.308,0,0,1,1.241-5.514,4.616,4.616,0,0,1,4.2-2.5,4.575,4.575,0,0,1,4.2,2.5,11.125,11.125,0,0,1,1.241,5.514A11.124,11.124,0,0,1,64.5-14.411a4.616,4.616,0,0,1-4.2,2.5,4.616,4.616,0,0,1-4.2-2.5A11.371,11.371,0,0,1,54.848-19.925Zm17.577,8.34h6.158A15.484,15.484,0,0,0,82.466-12a3.935,3.935,0,0,0,3.079-4.09,3.869,3.869,0,0,0-2.3-3.745,5.75,5.75,0,0,0-2.642-.62v-.161c2.895-.368,4.3-1.585,4.3-3.768a3.25,3.25,0,0,0-1.976-3.194,11.017,11.017,0,0,0-4.228-.666H72.425v.551c1.057,0,1.47.184,1.631.666a6.242,6.242,0,0,1,.115,1.7V-14.5c-.046,1.723-.046,1.746-.3,2.022-.207.23-.666.345-1.447.345Zm3.791-9.282v-6.686H78.33c2.964,0,4.388,1.057,4.388,3.263,0,2.252-1.425,3.423-4.182,3.423Zm0,8.593v-7.835h2.229a7.188,7.188,0,0,1,3.056.551,3.459,3.459,0,0,1,1.7,3.286,3.863,3.863,0,0,1-1.149,3.056,5.431,5.431,0,0,1-3.607.942ZM89.565-28.242v.551c1.654.092,1.769.23,1.769,2.367v7.169c0,2.39.3,3.7,1.1,4.733a6.56,6.56,0,0,0,5.216,2.137,6,6,0,0,0,5.078-2.183c.85-1.172,1.172-2.665,1.172-5.376v-5.1c0-1.907.115-2.665.437-3.1s.781-.62,1.677-.643v-.551h-5.124v.551c.965.023,1.447.207,1.746.643.253.368.322,1.034.322,3.1v5.032a10.284,10.284,0,0,1-.735,4.618,4.57,4.57,0,0,1-4.3,2.183,3.9,3.9,0,0,1-3.676-1.861c-.6-1.057-.827-2.344-.827-4.779v-6.571c0-2.137.115-2.275,1.792-2.367v-.551Zm20.357,16.7a8.477,8.477,0,0,1,1.585-.23,4.64,4.64,0,0,1,.758.069,13.581,13.581,0,0,0,3.079.391,5.477,5.477,0,0,0,3.745-1.264A3.849,3.849,0,0,0,120.4-15.7a4.358,4.358,0,0,0-.643-2.527c-.643-1.011-1.723-1.769-4.6-3.125-2.734-1.287-3.469-2.045-3.469-3.561a3.267,3.267,0,0,1,.666-2,2.989,2.989,0,0,1,2.435-.965,3.664,3.664,0,0,1,3.309,1.631,5.234,5.234,0,0,1,.643,2.412h.758l.138-4.526a4.219,4.219,0,0,1-1.379.345,4.591,4.591,0,0,1-.85-.115,9.424,9.424,0,0,0-2.711-.391,4.705,4.705,0,0,0-3.286,1.1,4.293,4.293,0,0,0-1.447,3.332,3.807,3.807,0,0,0,1.011,2.711,10.071,10.071,0,0,0,3.309,2.068c3.423,1.654,4.274,2.527,4.274,4.342,0,1.884-1.241,2.987-3.332,2.987a4.4,4.4,0,0,1-3.446-1.31,4.391,4.391,0,0,1-.942-2.895h-.758Z" transform="translate(1421.198 749.594)" fill="#707070"/>
    <path id="Sustracción_1" data-name="Sustracción 1" d="M171.968,78h0c-2.418-.319-2.549-1.565-2.731-3.29A9.6,9.6,0,0,0,168,70.442H45.7a9.644,9.644,0,0,0-2.834-3.266,14.531,14.531,0,0,0-4.321-2.245,22.15,22.15,0,0,0-6.949-1.021,15.658,15.658,0,0,0-8.392,2.2,14.477,14.477,0,0,0-4.716,4.842A19.21,19.21,0,0,0,15.953,78H6.259c-2.982,0-4.9-.553-5.123-1.48A37.061,37.061,0,0,1,.2,63.994c.162.011.335.018.517.018A10.4,10.4,0,0,0,6.474,62.13c3.618-2.441,7.8-8.029,7.842-8.086-.006,0-.293-.016-.76-.016-1.69,0-5.931.209-8.8,2.142a12.3,12.3,0,0,0-4,4.967,16.265,16.265,0,0,1,.769-2.207A16.868,16.868,0,0,1,6.7,53.84a33.9,33.9,0,0,1,5.777-2.706,28.236,28.236,0,0,0,7.536-3.909C27.514,38.49,35.85,32.191,44.784,28.5a43.418,43.418,0,0,1,16.268-3.509,18.435,18.435,0,0,1,2.246.11V1.242A1.244,1.244,0,0,1,64.54,0H170.726a1.243,1.243,0,0,1,1.242,1.242V78Zm-3.85-39.889-2.721.373c-.892,2.744-3.106,9.7-4.369,15a28.77,28.77,0,0,0-.625,9.108,23.688,23.688,0,0,0,.625,3.859h7.314a.035.035,0,0,1-.007-.01,19.191,19.191,0,0,1-1.289-3.17,24.954,24.954,0,0,1-1.143-8.184A140.34,140.34,0,0,1,168.118,38.108Zm-5.041.706h0L160.3,39.2a88.275,88.275,0,0,0-7.281,12.82c-3.077,6.89-5.469,14.36-5.493,14.434h11.536l0-.005a37.308,37.308,0,0,1,0-12.08,126.618,126.618,0,0,1,4.011-15.551Zm-7.561,1.046-2.692.359a57.519,57.519,0,0,0-9.807,12.366A109.288,109.288,0,0,0,136.43,66.45h8.87l0-.017a152.286,152.286,0,0,1,5.151-16.156A96.126,96.126,0,0,1,155.516,39.859Zm-75.145-.626h0A96.227,96.227,0,0,1,85.433,49.65a153.2,153.2,0,0,1,5.154,16.173h8.87a108.634,108.634,0,0,0-6.587-13.864,57.589,57.589,0,0,0-9.807-12.367l-2.692-.359Zm-7.56-1.045h0a126.321,126.321,0,0,1,4.01,15.55,37.333,37.333,0,0,1,0,12.085H88.359c-.021-.064-2.4-7.51-5.493-14.434a88.148,88.148,0,0,0-7.281-12.82l-2.774-.382Zm-5.042-.706a139.878,139.878,0,0,1,2.214,16.978,24.94,24.94,0,0,1-1.143,8.185,18.435,18.435,0,0,1-1.3,3.18h7.314a23.84,23.84,0,0,0,.626-3.859,28.972,28.972,0,0,0-.626-9.108c-1.267-5.316-3.477-12.262-4.369-15l-2.721-.373ZM59.535,29.61a35.76,35.76,0,0,0-15.873,3.462,67.135,67.135,0,0,0-13.024,9.174c-3.588,3.09-6.094,5.652-6.119,5.678a.254.254,0,0,1,.048-.01,198.692,198.692,0,0,1,21.409-2.52c2.715-.113,5.6-.17,8.586-.17,5.088,0,8.714.169,8.75.17V29.805A32.262,32.262,0,0,0,59.535,29.61Zm86.723-14.1a40.113,40.113,0,0,1-4.2,1.332,35.312,35.312,0,0,1-4.179.734,22.825,22.825,0,0,0-.121,3.938,27.012,27.012,0,0,0,1.924,8.9,12.948,12.948,0,0,0,4.185,5.111,26.78,26.78,0,0,0,5.3,3.149l4.737-.929c-2.772-2.132-7.575-6.5-8.6-11.754a18.563,18.563,0,0,1-.082-8.115A6.256,6.256,0,0,1,146.257,15.507Zm-56.625-.625h0A6.25,6.25,0,0,1,90.67,17.25a18.558,18.558,0,0,1-.083,8.115c-1.027,5.261-5.829,9.622-8.6,11.754l4.737.93a26.764,26.764,0,0,0,5.3-3.149,12.956,12.956,0,0,0,4.185-5.112,26.788,26.788,0,0,0,1.923-8.9,22.9,22.9,0,0,0-.121-3.938H98a35.816,35.816,0,0,1-4.166-.734A40.31,40.31,0,0,1,89.632,14.882Zm67.821-4.574c-.086.056-2.112,1.387-4.126,2.43a42.906,42.906,0,0,1-4.1,1.829,28.68,28.68,0,0,0-.014,4.264,29.811,29.811,0,0,0,2.03,9.228c1.2,2.9,4.3,6.522,6.806,8.941l4.08-.772a38.5,38.5,0,0,1-3.538-5.255,25.012,25.012,0,0,1-2.781-7.266,22.244,22.244,0,0,1,.26-9.572A17.862,17.862,0,0,1,157.452,10.308ZM78.437,9.683h0a17.784,17.784,0,0,1,1.382,3.824,22.233,22.233,0,0,1,.26,9.572,25,25,0,0,1-2.78,7.266A38.532,38.532,0,0,1,73.76,35.6l4.079.772c2.5-2.416,5.609-6.034,6.806-8.941a29.273,29.273,0,0,0,2.03-9.228,28.58,28.58,0,0,0-.013-4.264l-.011,0a43.157,43.157,0,0,1-4.088-1.825C80.551,11.07,78.483,9.713,78.437,9.683Zm89.091-4.929c-.065.039-1.592.956-3.179,1.84s-3.25,1.743-3.32,1.779a21.26,21.26,0,0,0-1.732,4.471,18.442,18.442,0,0,0-.063,9.993,63.623,63.623,0,0,0,5.864,12.8l2.838-.506a112.046,112.046,0,0,1-2.031-13.6C165.3,13.819,167.505,4.845,167.528,4.754ZM68.361,4.127h0c.022.09,2.226,9.052,1.623,16.772a111.446,111.446,0,0,1-2.032,13.6l2.838.506a63.5,63.5,0,0,0,5.865-12.8,18.067,18.067,0,0,0-.063-9.993,21.379,21.379,0,0,0-1.732-4.471l-.014-.007c-.3-.154-1.851-.962-3.306-1.772-1.614-.9-3.163-1.83-3.179-1.84Zm8.577.141a39.382,39.382,0,0,0,9.529,4.643,76.654,76.654,0,0,0,12.369,3.251,107.332,107.332,0,0,0,17.846,1.6c.382,0,.77.005,1.153.005h.007a102.631,102.631,0,0,0,17.68-1.484A82.054,82.054,0,0,0,148.26,9.019a47.987,47.987,0,0,0,10.3-4.75h-6.593A66.653,66.653,0,0,1,142.128,7.7a95.239,95.239,0,0,1-11.153,2.362,96.406,96.406,0,0,1-14.293,1.074,91.261,91.261,0,0,1-14.032-1.074A81.871,81.871,0,0,1,92.071,7.7a52.864,52.864,0,0,1-9-3.436Zm12.525-.923h0A79.756,79.756,0,0,0,98,6.084a77.607,77.607,0,0,0,19.224,2.739A84.085,84.085,0,0,0,137.19,6.084c5.464-1.353,9.241-2.725,9.279-2.739h-4.6c-.131.037-3.258.907-7.81,1.773a94.06,94.06,0,0,1-16.832,1.773,82.6,82.6,0,0,1-16.25-1.773c-4.323-.878-7.2-1.764-7.227-1.773Z" transform="translate(1377.063 645)" fill="#9d1a1a"/>
  </g>
</svg>
