<svg xmlns="http://www.w3.org/2000/svg" width="172.534" height="93.615" viewBox="0 0 172.534 93.615">
  <g id="Grupo_46" data-name="Grupo 46" transform="translate(-823.139 -311.456)">
    <path id="Trazado_98" data-name="Trazado 98" d="M3.233-28.5a13.529,13.529,0,0,0,2.741,8.618,10.266,10.266,0,0,0,8.42,3.8,10.168,10.168,0,0,0,8.42-3.8A13.338,13.338,0,0,0,25.555-28.5a13.56,13.56,0,0,0-2.741-8.651,10.193,10.193,0,0,0-8.42-3.764,10.286,10.286,0,0,0-8.42,3.764A13.433,13.433,0,0,0,3.233-28.5Zm3.335,0a16.252,16.252,0,0,1,1.783-7.925,6.634,6.634,0,0,1,6.043-3.6,6.575,6.575,0,0,1,6.043,3.6A15.988,15.988,0,0,1,22.22-28.5a15.988,15.988,0,0,1-1.783,7.925,6.634,6.634,0,0,1-6.043,3.6,6.634,6.634,0,0,1-6.043-3.6A16.341,16.341,0,0,1,6.568-28.5Z" transform="translate(840.569 420.957)" fill="#fff"/>
    <path id="Trazado_99" data-name="Trazado 99" d="M5.233-18.767h1.5a14.53,14.53,0,0,0,4.4-.553c1.89-.668,2.789-2.075,2.789-4.288a4.018,4.018,0,0,0-2.282-4.011,9.992,9.992,0,0,0-3.9-.622H1.406v.553c1.66.069,1.775.231,1.775,2.374v10.857c0,2.144-.138,2.305-1.775,2.351v.576H7.169v-.576c-1.8-.046-1.936-.231-1.936-2.351Zm0-.692V-27.55H7.307c2.928,0,4.38,1.337,4.38,4.034a4.2,4.2,0,0,1-1.06,3.089,5.618,5.618,0,0,1-3.757.968Zm12.517,7.93H29.76l.461-4.587-.645-.046C28.93-12.981,28.1-12.22,25.2-12.22H21.553v-7.63h2.374a4.172,4.172,0,0,1,2.6.53,3.172,3.172,0,0,1,.645,1.844h.645v-5.417h-.645c-.254,2.029-.692,2.351-3.25,2.351H21.553V-27.55h3.181c2.951,0,3.8.692,4.357,3.481l.669-.046-.369-4.126H17.75v.553c1.06,0,1.475.184,1.637.669a6.262,6.262,0,0,1,.115,1.706v10.857c-.046,1.729-.046,1.752-.3,2.029-.207.231-.669.346-1.452.346Zm20.47-7.93h1.406a4.691,4.691,0,0,1,1.637.277c.692.231,1.13.692,1.683,1.683a45.086,45.086,0,0,1,2.513,5.97h3.6v-.507a1.756,1.756,0,0,1-1.222-.438c-.461-.392-.645-.715-1.775-3.273a7.679,7.679,0,0,0-1.913-3.02A3.886,3.886,0,0,0,42.3-19.6V-19.8a5.7,5.7,0,0,0,3.873-1.706,4.473,4.473,0,0,0,.784-2.6c0-2.812-1.959-4.126-6.178-4.126H34.393v.553c1.66.069,1.775.231,1.775,2.374v10.857c0,2.121-.138,2.305-1.775,2.351v.576h5.625v-.576c-1.66-.046-1.8-.231-1.8-2.351Zm0-.692v-7.4H40.34c2.951,0,4.38,1.176,4.38,3.6a3.5,3.5,0,0,1-1.406,3.089,5.851,5.851,0,0,1-3.181.715ZM52.7-19.9a9.445,9.445,0,0,0,1.913,6.017,7.167,7.167,0,0,0,5.878,2.651,7.1,7.1,0,0,0,5.878-2.651A9.312,9.312,0,0,0,68.279-19.9a9.466,9.466,0,0,0-1.913-6.04,7.116,7.116,0,0,0-5.878-2.628,7.181,7.181,0,0,0-5.878,2.628A9.378,9.378,0,0,0,52.7-19.9Zm2.328,0a11.346,11.346,0,0,1,1.245-5.532,4.631,4.631,0,0,1,4.218-2.513,4.59,4.59,0,0,1,4.218,2.513A11.161,11.161,0,0,1,65.951-19.9a11.161,11.161,0,0,1-1.245,5.532,4.631,4.631,0,0,1-4.218,2.513,4.631,4.631,0,0,1-4.218-2.513A11.408,11.408,0,0,1,55.024-19.9Zm17.635,8.368h6.178a15.535,15.535,0,0,0,3.9-.415,3.948,3.948,0,0,0,3.089-4.1A3.882,3.882,0,0,0,83.516-19.8a5.769,5.769,0,0,0-2.651-.622v-.161c2.9-.369,4.311-1.591,4.311-3.78a3.261,3.261,0,0,0-1.982-3.2,11.054,11.054,0,0,0-4.242-.668H72.659v.553c1.06,0,1.475.184,1.637.669a6.261,6.261,0,0,1,.115,1.706v10.857c-.046,1.729-.046,1.752-.3,2.029-.207.231-.669.346-1.452.346Zm3.8-9.313V-27.55h2.121c2.974,0,4.4,1.06,4.4,3.273,0,2.259-1.429,3.435-4.2,3.435Zm0,8.621v-7.861H78.7a7.212,7.212,0,0,1,3.066.553,3.47,3.47,0,0,1,1.706,3.3,3.875,3.875,0,0,1-1.153,3.066,5.449,5.449,0,0,1-3.619.945ZM89.855-28.241v.553c1.66.092,1.775.231,1.775,2.374v7.192c0,2.4.3,3.711,1.106,4.749a6.582,6.582,0,0,0,5.233,2.144,6.019,6.019,0,0,0,5.094-2.19c.853-1.176,1.176-2.674,1.176-5.394v-5.117c0-1.913.115-2.674.438-3.112s.784-.622,1.683-.645v-.553H101.22v.553c.968.023,1.452.207,1.752.645.254.369.323,1.037.323,3.112v5.048a10.318,10.318,0,0,1-.738,4.633,4.585,4.585,0,0,1-4.311,2.19,3.914,3.914,0,0,1-3.688-1.867c-.6-1.06-.83-2.351-.83-4.795v-6.593c0-2.144.115-2.282,1.8-2.374v-.553Zm20.424,16.759a8.5,8.5,0,0,1,1.591-.231,4.656,4.656,0,0,1,.761.069,13.626,13.626,0,0,0,3.089.392,5.5,5.5,0,0,0,3.757-1.268,3.861,3.861,0,0,0,1.314-3.135,4.372,4.372,0,0,0-.645-2.536c-.645-1.014-1.729-1.775-4.61-3.135-2.743-1.291-3.481-2.052-3.481-3.573a3.278,3.278,0,0,1,.668-2.006,3,3,0,0,1,2.443-.968,3.676,3.676,0,0,1,3.319,1.637,5.251,5.251,0,0,1,.645,2.42h.761l.138-4.541a4.233,4.233,0,0,1-1.383.346,4.606,4.606,0,0,1-.853-.115,9.455,9.455,0,0,0-2.72-.392,4.721,4.721,0,0,0-3.3,1.106,4.307,4.307,0,0,0-1.452,3.343,3.82,3.82,0,0,0,1.014,2.72,10.1,10.1,0,0,0,3.319,2.075c3.435,1.66,4.288,2.536,4.288,4.357,0,1.89-1.245,3-3.342,3a4.412,4.412,0,0,1-3.458-1.314,4.405,4.405,0,0,1-.945-2.9h-.761Z" transform="translate(867.425 416.3)" fill="#fff"/>
    <path id="Sustracción_1" data-name="Sustracción 1" d="M172.534,78.253h0c-2.427-.32-2.558-1.57-2.74-3.3a9.638,9.638,0,0,0-1.241-4.278H45.85A9.63,9.63,0,0,0,43.006,67.4a14.58,14.58,0,0,0-4.335-2.253A22.225,22.225,0,0,0,31.7,64.121a15.713,15.713,0,0,0-8.42,2.208,14.525,14.525,0,0,0-4.732,4.857A19.3,19.3,0,0,0,16,78.252H6.279c-2.992,0-4.914-.555-5.14-1.483A37.206,37.206,0,0,1,.2,64.205c.163.011.337.018.52.018A10.3,10.3,0,0,0,6.5,62.334c3.635-2.453,7.825-8.056,7.867-8.112-.006,0-.294-.017-.764-.017-1.7,0-5.949.209-8.824,2.149A12.344,12.344,0,0,0,.76,61.337a16.318,16.318,0,0,1,.771-2.213,16.922,16.922,0,0,1,5.187-5.108,34.017,34.017,0,0,1,5.8-2.716,28.338,28.338,0,0,0,7.559-3.921C27.605,38.616,35.968,32.3,44.931,28.6a43.56,43.56,0,0,1,16.321-3.52,18.6,18.6,0,0,1,2.253.11V1.246A1.247,1.247,0,0,1,64.752,0H171.288a1.247,1.247,0,0,1,1.246,1.246V78.252Zm-3.862-40.019h0l-2.729.374c-.894,2.746-3.111,9.711-4.384,15.051a28.869,28.869,0,0,0-.627,9.139,23.818,23.818,0,0,0,.627,3.872H168.9l0,0a23.886,23.886,0,0,1-2.444-11.4,140.454,140.454,0,0,1,2.222-17.033Zm-5.059.708h0l-2.784.383a88.717,88.717,0,0,0-7.3,12.862c-3.081,6.9-5.486,14.407-5.51,14.482h11.574l0-.005a37.456,37.456,0,0,1,0-12.12,126.92,126.92,0,0,1,4.024-15.6Zm-7.585,1.05h0l-2.7.36a57.718,57.718,0,0,0-9.839,12.406,109.137,109.137,0,0,0-6.609,13.911h8.9l0-.019a153,153,0,0,1,5.168-16.207,96.585,96.585,0,0,1,5.079-10.451Zm-75.392-.628h0a96.544,96.544,0,0,1,5.078,10.451A154.543,154.543,0,0,1,90.886,66.04h8.9a108.355,108.355,0,0,0-6.608-13.911,57.743,57.743,0,0,0-9.839-12.406l-2.7-.36Zm-7.585-1.049a126.935,126.935,0,0,1,4.024,15.6,37.445,37.445,0,0,1,0,12.125H88.65c-.02-.064-2.436-7.6-5.51-14.482A88.6,88.6,0,0,0,75.834,38.7Zm-5.059-.708a140.275,140.275,0,0,1,2.221,17.033,23.933,23.933,0,0,1-2.446,11.4h7.339a23.637,23.637,0,0,0,.627-3.872,29.088,29.088,0,0,0-.627-9.139c-1.269-5.324-3.488-12.3-4.384-15.051Zm-8.262-7.9a35.876,35.876,0,0,0-15.925,3.474,67.323,67.323,0,0,0-13.067,9.2c-3.611,3.109-6.114,5.671-6.139,5.7a.277.277,0,0,1,.052-.011,199.615,199.615,0,0,1,21.475-2.527c2.724-.114,5.623-.171,8.615-.171,5.085,0,8.742.169,8.778.171V29.9A31.944,31.944,0,0,0,59.731,29.708Zm87.008-14.149a40.385,40.385,0,0,1-4.215,1.335,35.521,35.521,0,0,1-4.193.737,22.781,22.781,0,0,0-.121,3.951,27.11,27.11,0,0,0,1.93,8.932,12.991,12.991,0,0,0,4.2,5.128,26.867,26.867,0,0,0,5.316,3.159l4.752-.932c-2.781-2.141-7.6-6.522-8.629-11.794a18.619,18.619,0,0,1-.082-8.141A6.228,6.228,0,0,1,146.738,15.559Zm-56.812-.628h0a6.241,6.241,0,0,1,1.043,2.375,18.619,18.619,0,0,1-.082,8.141c-1.03,5.277-5.849,9.654-8.629,11.794l4.753.932a26.861,26.861,0,0,0,5.316-3.159,13,13,0,0,0,4.2-5.128,26.887,26.887,0,0,0,1.93-8.932A22.861,22.861,0,0,0,98.334,17h-.015a36.052,36.052,0,0,1-4.178-.736A40.049,40.049,0,0,1,89.926,14.931Zm68.044-4.589h0c-.021.014-2.092,1.376-4.141,2.437a42.885,42.885,0,0,1-4.112,1.835,28.453,28.453,0,0,0-.013,4.278,29.916,29.916,0,0,0,2.037,9.259c1.2,2.912,4.313,6.543,6.828,8.97l4.093-.774a38.71,38.71,0,0,1-3.549-5.272,25.085,25.085,0,0,1-2.79-7.289,22.31,22.31,0,0,1,.26-9.6,17.766,17.766,0,0,1,1.386-3.839ZM78.7,9.714h0a17.671,17.671,0,0,1,1.386,3.837,22.318,22.318,0,0,1,.261,9.6,25.1,25.1,0,0,1-2.79,7.289A38.688,38.688,0,0,1,74,35.718l4.093.774c2.514-2.427,5.629-6.059,6.827-8.97a29.365,29.365,0,0,0,2.038-9.259,28.7,28.7,0,0,0-.014-4.278l-.011,0a43.242,43.242,0,0,1-4.1-1.832C80.814,11.1,78.744,9.746,78.7,9.714Zm89.383-4.945c-.017.01-1.58.95-3.189,1.846-1.577.878-3.258,1.749-3.329,1.785a21.487,21.487,0,0,0-1.739,4.486,18.5,18.5,0,0,0-.064,10.025,63.792,63.792,0,0,0,5.885,12.838l2.847-.508A112.462,112.462,0,0,1,166.45,21.6C165.846,13.866,168.056,4.86,168.079,4.769ZM68.586,4.141c.022.09,2.233,9.09,1.628,16.828a111.8,111.8,0,0,1-2.039,13.645l2.847.508a63.768,63.768,0,0,0,5.885-12.838,18.122,18.122,0,0,0-.064-10.025,21.334,21.334,0,0,0-1.738-4.486l-.013-.007c-.3-.154-1.855-.965-3.318-1.779C70.183,5.1,68.65,4.179,68.586,4.141Zm8.605.142a39.492,39.492,0,0,0,9.56,4.659A76.908,76.908,0,0,0,99.161,12.2a107.687,107.687,0,0,0,17.905,1.605c.386,0,.775.006,1.157.006a102.989,102.989,0,0,0,17.739-1.489,82.349,82.349,0,0,0,12.782-3.276,48.106,48.106,0,0,0,10.333-4.766h-6.614A66.983,66.983,0,0,1,142.6,7.73a95.543,95.543,0,0,1-11.189,2.37,96.72,96.72,0,0,1-14.34,1.077A91.565,91.565,0,0,1,102.987,10.1,82.138,82.138,0,0,1,92.374,7.73a52.928,52.928,0,0,1-9.031-3.448Zm12.567-.926h0A80.182,80.182,0,0,0,98.32,6.1a77.871,77.871,0,0,0,19.287,2.747A84.383,84.383,0,0,0,137.642,6.1c5.477-1.356,9.272-2.734,9.31-2.747h-4.62c-.126.036-12.807,3.558-24.724,3.558a82.856,82.856,0,0,1-16.3-1.779c-4.342-.882-7.223-1.77-7.251-1.779Z" transform="translate(823.139 311.456)" fill="#fff"/>
  </g>
</svg>
